<svg xmlns="http://www.w3.org/2000/svg" viewBox="0 0 332.72 317.46"><defs><style>.cls-1{fill:#7abc58;}</style></defs><g id="Capa_2" data-name="Capa 2"><g id="Capa_2-2" data-name="Capa 2"><path class="cls-1" d="M226.38,119.18c0,12.9,0,25.81,0,38.71,0,3.2-.08,6.41-.24,9.61-.4,7.73-7,13.62-14.19,14.06-2.69.16-5.4,0-8.09,0-2.43,0-2.65.16-2.67,2.6q-.06,13.13,0,26.25c0,3.17-.3,6.25-2,9-2,3.32-4.67,5.78-8.7,6.25a38.18,38.18,0,0,1-5.65.34,10.92,10.92,0,0,1-7.36-3.18c-3.95-3.62-5-8-4.89-13,.09-4.81,0-9.62,0-14.43,0-3.06.23-6.12.27-9.18.07-5.08-.84-4.63-4.48-4.68s-7.14,0-10.72,0c-.36,0-.73,0-1.09,0-1.73.14-2,.41-2,2.13,0,2.63-.08,5.25-.08,7.88,0,5.9,0,11.81,0,17.71a41.34,41.34,0,0,1-.18,4.59,14.8,14.8,0,0,1-4.06,8.42c-2.74,3-6,3.92-9.79,3.77a20,20,0,0,1-4.54-.33c-5.07-1.47-9.82-7.07-9.75-13.1.12-9.33-.07-18.66-.12-28l0-.66c-.14-2.1-.31-2.31-2.51-2.38-2.84-.1-5.68-.08-8.52-.2-4.53-.18-7.79-2.4-10.7-5.86-2.75-3.26-3.15-6.93-3.16-10.77-.06-20.85,0-41.7,0-62.55,0-7.73-.06-15.45-.09-23.18,0-3.27.12-3.45,3.45-3.46,6.41,0,12.83,0,19.24,0l99.11,0,1.31,0A1.79,1.79,0,0,1,226,77.43a23.76,23.76,0,0,1,.27,3.26q0,19.25,0,38.49Z"/><path class="cls-1" d="M194.9,20.59c2.15,1.52,4.25,3.07,6.42,4.51A52.7,52.7,0,0,1,215,38.18a47.9,47.9,0,0,1,4.44,6.69c1.64,3.32,2.77,6.88,4.26,10.27s1.65,6.75,2.39,10.13a12.41,12.41,0,0,1-.06,4.12c-.19,1.49-.63,1.8-2.21,1.84-2.91.07-5.83.09-8.74.09H113.76c-2.19,0-4.37-.12-6.56-.12a11.85,11.85,0,0,0-2.36.32c-2.66.54-4-.5-3.74-3.23A64.08,64.08,0,0,1,105,50.68a51.89,51.89,0,0,1,8.74-14.52,59.41,59.41,0,0,1,15.41-13.32,15.28,15.28,0,0,1,1.42-1c2.2-1,1.61-1.87.74-3.47-2.51-4.6-5-9.18-7.55-13.77A7,7,0,0,1,123.05,3,2.24,2.24,0,0,1,124.42.34c1.1-.45,1.81.13,2.39,1a16.09,16.09,0,0,1,.9,1.5q3.95,7,7.91,14.06c.9,1.59,1.25,1.77,3,1.14a84.77,84.77,0,0,1,13.23-3.74,29.9,29.9,0,0,1,5.41-.55c4.81-.05,9.64-.2,14.42.16a63.19,63.19,0,0,1,10,2c2.24.55,4.4,1.46,6.62,2.14s2.57.3,3.62-1.61c2.72-5,5.52-9.88,8.33-14.79.87-1.51,1.86-1.91,2.79-1.35a2.59,2.59,0,0,1,.87,3.47c-1.37,2.65-2.85,5.25-4.28,7.87s-2.94,5.36-4.4,8A6.15,6.15,0,0,0,194.9,20.59Zm-2.36,17.46c-3.2.05-4.8,1.59-5.17,4.48-.34,2.63,2.12,5.3,4.74,5.48,3.11.21,5.35-2.93,5.42-4.92A5.24,5.24,0,0,0,192.54,38.05ZM139.81,43.1A5.08,5.08,0,0,0,134.69,38a4.74,4.74,0,0,0-4.77,4.92c0,3.27,1.53,4.86,5,5A4.6,4.6,0,0,0,139.81,43.1Z"/><path class="cls-1" d="M67.82,116.32q0-15,0-29.95A14.36,14.36,0,0,1,79.18,73.63a13,13,0,0,1,12.31,3.29,15.23,15.23,0,0,1,4.83,11.55c0,18.51,0,37,0,55.52a28.7,28.7,0,0,1-.28,4.14c-.86,5.69-4.51,9.24-9.53,11.23-3,1.19-6.31.81-9.44-.25C71.7,157.3,69.17,153.18,68,148a7.22,7.22,0,0,1-.14-1.74Q67.82,131.29,67.82,116.32Z"/><path class="cls-1" d="M259,116.34q0,12.81,0,25.6c0,1.23.12,2.47.14,3.71a13.53,13.53,0,0,1-4.5,10.72c-5.29,4.65-14.18,4.47-19.09,0-3.5-3.2-4.49-7.05-4.58-11.33-.14-7.07-.05-14.15-.05-21.22,0-11.66.06-23.33,0-35a24.32,24.32,0,0,1,1.35-7.71,6.23,6.23,0,0,1,1.11-1.82c.5-.63,1.15-1.13,1.66-1.74,2.77-3.36,6.58-4.24,10.61-4.14a13,13,0,0,1,11.57,7,13.77,13.77,0,0,1,1.88,7.08c-.07,9.62,0,19.24,0,28.86Z"/><path class="cls-1" d="M154.57,268.21a19.13,19.13,0,0,0,.36-2.65c0-4.67-.11-9.33-.2-14,0-1.74.38-2.3,2.09-2.34,2.91-.07,5.83,0,8.74-.07,1.16,0,1.79.48,1.86,1.64s.21,2.18.21,3.27q0,28.65-.12,57.3c0,1,0,2-.08,3.06-.14,2-.4,2.29-2.34,2.31q-4.05,0-8.1,0c-1.79,0-2-.3-2.3-2.15-.05-.35-.14-.7-.27-1.37a8.23,8.23,0,0,0-2.19.78,16.48,16.48,0,0,1-10.56,3.45c-3.21,0-6.4,0-9.51-1.07a26.19,26.19,0,0,1-9.64-6.1c-3.3-3.12-5.2-7-6.76-11.05a21.37,21.37,0,0,1-1.23-6.41,28.36,28.36,0,0,1,3.9-16.74c4.91-8.05,12.07-12.33,21.63-12.5a20.85,20.85,0,0,1,13.07,4.08A7.73,7.73,0,0,0,154.57,268.21Zm.11,22.79h.14c0-1.9.1-3.79,0-5.68A7,7,0,0,0,154,282a13.1,13.1,0,0,0-5.75-4.86c-4-1.69-8-2.09-12.2-.18a16.43,16.43,0,0,0-5.6,4.35c-1.69,1.94-2.36,4.4-2.88,6.95A14.52,14.52,0,0,0,145.13,305a15.32,15.32,0,0,0,8.49-5.36,3.72,3.72,0,0,0,1.06-2.51C154.67,295.07,154.68,293,154.68,291Z"/><path class="cls-1" d="M319.74,312.88c-2.45,1.27-4.47,2.39-6.56,3.38a7.7,7.7,0,0,1-2.89.85c-3.13.13-6.27.23-9.38.06-2.72-.15-5.11-1.5-7.56-2.64-4.14-1.91-7-5.22-9.38-8.82A27.18,27.18,0,0,1,279.61,291a26,26,0,0,1,4-15c5.48-8.46,13.22-12.92,23.53-12.31,4.08.24,7.92,1.19,11.12,3.94a7.13,7.13,0,0,0,1.44.64c.1-1,.25-1.72.25-2.47,0-4.74,0-9.48,0-14.22,0-2.13.15-2.38,2.35-2.45,3-.08,6,0,9,0,1.05,0,1.4.62,1.41,1.54,0,1.38,0,2.77,0,4.15q0,28.44,0,56.88c0,1.09,0,2.18,0,3.27,0,1.36-.34,1.8-1.62,1.81-3.21,0-6.41-.07-9.62-.13a1.33,1.33,0,0,1-1.48-1.49C319.9,314.52,319.82,313.82,319.74,312.88Zm.24-22.05h-.05c0-2.26.09-4.52-.05-6.77a4.78,4.78,0,0,0-1-2.55,15.09,15.09,0,0,0-10.83-5.72c-6.88-.67-12.53,3.56-14.73,9.67-2.44,6.74.36,15.43,7.63,18.53a15.55,15.55,0,0,0,12.28,0,15.82,15.82,0,0,0,5.45-4.26,4,4,0,0,0,1.28-3C320,294.76,320,292.79,320,290.83Z"/><path class="cls-1" d="M40.11,312.82a17,17,0,0,0-2.32,1.23,16.37,16.37,0,0,1-10.6,3.37c-2.61,0-5.25.27-7.8-.55-5.53-1.76-10.33-4.57-13.67-9.48-.89-1.31-1.79-2.63-2.61-4C.67,299.32,0,294.78,0,290.16a26.69,26.69,0,0,1,2-10.22,27.08,27.08,0,0,1,9-11.55,23.35,23.35,0,0,1,11-4.48,25.4,25.4,0,0,1,11,.82,30.75,30.75,0,0,1,4.49,2.15c.74.38,1.46.81,2.48,1.39.23-.92.42-1.51.53-2.12a1.76,1.76,0,0,1,2-1.58c3,.07,6.11.11,9.16.21,1.25,0,1.62.64,1.6,2.33-.05,2.33-.15,4.66-.15,7q0,18.59,0,37.16c0,1.09.1,2.19.06,3.28-.06,1.57-.56,2.16-2.11,2.2-2.92.08-5.83,0-8.75,0a1.61,1.61,0,0,1-1.84-1.68A22.75,22.75,0,0,0,40.11,312.82Zm.32-22.13h.06c0-1.6-.09-3.21,0-4.81.28-4.26-2.54-6.7-5.63-8.39a14.61,14.61,0,0,0-8.45-1.76,14.57,14.57,0,0,0-10,5.1,12.64,12.64,0,0,0-2.73,4.66c-1.27,5-1,9.84,2.18,14.16a12.28,12.28,0,0,0,5.88,4.71c5.39,1.66,10.67,1.5,15.19-2.51,2-1.79,3.92-3.67,3.55-6.79A37.45,37.45,0,0,1,40.43,290.69Z"/><path class="cls-1" d="M227.71,317.41c-14.45.73-26.25-12.31-26.84-25.5-.74-16.31,12.91-28.46,27.19-28.25a27.09,27.09,0,0,1,27,27.17C255,304.93,242.93,318.12,227.71,317.41Zm-.07-12.66c7.16.45,14.32-5.7,14.51-14.25.16-7.56-7-14-13.29-14.06-9-.14-15,6.1-15.15,14.39C213.58,298.08,220.39,304.87,227.64,304.75Z"/><path class="cls-1" d="M60.15,300.33c0-3.79,0-7.58,0-11.37a25.4,25.4,0,0,1,3.93-14.07,23.13,23.13,0,0,1,14.63-10.52c8.2-1.91,15.7-.17,22,5.45a23.42,23.42,0,0,1,6.46,9.46,37.5,37.5,0,0,1,2,13.3c0,6.27,0,12.54-.07,18.81,0,1.09,0,2.19-.1,3.28-.14,1.76-.39,2-2.11,2.06-2.84,0-5.68.08-8.52.06-1.78,0-2.17-.47-2.17-2.22,0-8.53,0-17.06.08-25.59a12.33,12.33,0,0,0-2.66-8.33c-1.26-1.52-2.76-3-4.9-3.43a29.49,29.49,0,0,0-4.93-.66c-5.42,0-9.15,4-10.54,8.34a9.69,9.69,0,0,0-.26,2.81c0,7.94,0,15.89-.06,23.83,0,1.17-.08,2.33-.17,3.49a1.66,1.66,0,0,1-1.86,1.71c-3,0-6,0-9-.05-1.49,0-1.81-.57-1.81-2.37v-14Z"/><path class="cls-1" d="M174.56,300.26c0-4.22-.08-8.45,0-12.67a27.5,27.5,0,0,1,2.31-11.47,20.31,20.31,0,0,1,15.75-11.8c1.65-.28,3.32-.45,5-.63s2.15.32,2.16,1.94q0,4.47-.09,8.94c0,1.32-.5,1.65-1.9,1.89a16,16,0,0,0-4.43,1,9.3,9.3,0,0,0-4.95,4.9,20.94,20.94,0,0,0-1.16,7.91c0,8.16,0,16.32,0,24.47,0,1.49-.43,2-1.86,2.06-2.77,0-5.53,0-8.3,0a9.56,9.56,0,0,1-1.3-.14,1.51,1.51,0,0,1-1.47-1.77c.05-4.87,0-9.75,0-14.63Z"/><path class="cls-1" d="M273.88,291q0,11.8,0,23.6c0,1.8-.31,2.2-2.13,2.22-2.91,0-5.82,0-8.74-.06-1.57,0-1.83-.32-1.94-2-.06-.87-.05-1.75-.06-2.62q0-21.42,0-42.82c0-1.09.08-2.19.17-3.27a1.4,1.4,0,0,1,1.58-1.43c3.06,0,6.12,0,9.18.09,1.66.05,2.06.64,2.06,2.66,0,5.68,0,11.36-.05,17V291Z"/><path class="cls-1" d="M267.49,245.49a7.42,7.42,0,0,1,6.43,4.5,7,7,0,0,1-.83,7.8,6.91,6.91,0,0,1-7.6,2.59,7,7,0,0,1-4.49-3.81c-1.29-2.52-1.45-4.84.12-7.2S264.58,245.52,267.49,245.49Z"/></g></g></svg>