<?xml version="1.0" encoding="utf-8"?>
<!-- Generator: Adobe Illustrator 25.2.1, SVG Export Plug-In . SVG Version: 6.00 Build 0)  -->
<svg version="1.1" id="Capa_1" xmlns="http://www.w3.org/2000/svg" xmlns:xlink="http://www.w3.org/1999/xlink" x="0px" y="0px"
	 viewBox="0 0 286.4 233.1" style="enable-background:new 0 0 286.4 233.1;" xml:space="preserve">
<style type="text/css">
	.st0{fill:#FFFFFF;}
</style>
<g>
	<path class="st0" d="M121.1,146.5c1.5-1.8,3.1-3.5,4.6-5.3c3.2-3.8,6.2-7.7,9.5-11.5c6.5-7.6,13.1-15.1,19.6-22.7
		c5.7-6.6,11.4-13.3,17.1-19.9c0.3-0.3,0.6-0.6,0.9-0.9c1.5-1.5,2.5-3.2,3.1-5.2c1.5-4.9,2.9-9.8,3.8-14.8c0.2-1.3,0.1-1.7-1.2-2.2
		c-2.7-1-5.4-2.1-8.1-2.8c-3.7-1-7.5-1.7-11.4-1.7c-0.4,0-0.7-0.2-1.3-0.4c0.4-0.6,0.7-1,1.1-1.4c3.3-3.6,6.9-6.8,11.5-8.8
		c3-1.3,6.1-2.1,9.3-2.5c2.3-0.3,4.5-0.4,6.8,0.4c1.3,0.4,1.8,0,2.2-1.4c0.6-2.4,1.1-4.8,1.7-7.2c1.3-5.4,3.9-10.1,7-14.7
		c4.2-6.2,9.5-11.2,15.9-15.2c6.4-4,13.4-6.4,20.8-7.5c2-0.3,4-0.5,6.1-0.7c1.7-0.2,2.1,0.2,2.5,1.8c1.6,5.7,1.9,11.5,1.6,17.3
		c-0.2,4.6-1.3,9.1-2.8,13.5c-2.4,7.2-6.3,13.5-11.5,19.1c-4.5,4.9-9.8,8.8-15.9,11.6c-0.1,0-0.1,0-0.2,0.1
		c-2.4,1.1-2.5,1.4-1.5,3.8c1.2,2.7,1.6,5.5,1.8,8.4c0.5,6.8-1,13.1-4.5,18.9c-0.8,1.4-1,1.6-2.2,2.3c-0.3-0.6-0.6-1.1-0.9-1.7
		c-0.7-1.8-1.3-3.6-2.1-5.4c-1.8-4.2-4.3-7.9-7.1-11.4c-0.6-0.8-1.3-0.9-2.2-0.4c-4.4,2.1-8.8,4.3-12.5,7.3c-2.4,2-4.5,4.4-6.6,6.8
		c-3.4,3.9-6.7,7.8-10.1,11.7c-3.7,4.3-7.3,8.5-11,12.8c-3.2,3.8-6.5,7.5-9.8,11.3c-4.3,4.9-8.6,9.8-13,14.7
		c-1.2,1.4-1.3,1.7-0.3,3.3c3.5,5.7,7,11.4,10.6,17.1c0.3,0.6,0.8,1,1.2,1.6c0.4,0.7,0.2,1.2-0.6,1.2c-1.8,0.1-3.6,0.1-5.4,0
		c-0.6,0-1.3-0.6-1.7-1.2c-2.7-4.3-5.3-8.7-8-13c-0.1-0.1-0.1-0.2-0.2-0.3c-1.2-2-1.6-2-3.1-0.4c-1,1.1-2,2.2-3,3.3
		c-0.9,1-1.4,2-1.4,3.4c0,2.1,0,4.2,0,6.3c0,1.5-0.3,1.9-1.9,2c-1.2,0-2.4,0-3.6,0c-1.3-0.1-1.7-0.5-1.7-1.8c0-12,0-24.1,0-36.1
		c0-1-0.1-2-0.1-3.1c0-1.2,0.4-1.7,1.6-1.8c1.5-0.1,3,0,4.5,0c0.8,0,1.2,0.5,1.2,1.3c0,0.3,0,0.6,0,0.9c0,6.5-0.1,13.1-0.1,19.6
		C120.2,145.5,120.1,146.1,121.1,146.5z M221.6,17.2c-5.2,0-9.8,4.4-9.6,9.6c0.1,4.6,3.4,9,9.6,9.3c4.8,0.2,9.8-4.5,9.6-9.3
		C230.9,21.6,227.2,17.4,221.6,17.2z"/>
	<path class="st0" d="M0.2,165.7C0.1,165,0,164.4,0,163.9c0-18.2,0-36.4,0-54.6c0-0.2,0-0.5,0-0.7c0.1-1.1,0.3-1.3,1.5-1.3
		c1.9,0,3.7,0,5.6,0c5.7,0,11.4,0,17.1,0c1.5,0,3.2,0.1,4.6,0.5c6,1.9,10,5.8,11,12.2c0.6,4,0.6,8-1.1,11.8
		c-1.4,3.1-3.6,5.5-6.6,7.1c-2.7,1.4-2.7,1.4-1.3,4.1c2.2,4.1,4.2,8.2,6.4,12.3c1.5,2.9,3.1,5.8,4.7,8.7c0.7,1.4,0.5,1.8-1,1.8
		c-2,0-4,0-5.9,0c-1.3,0-2.1-0.5-2.7-1.7c-3.6-7.2-7.3-14.3-10.9-21.4c-0.6-1.1-1.3-1.7-2.7-1.7c-2.6,0.1-5.3,0-7.9,0
		c-2.1,0-2.5,0.4-2.5,2.6c0,6.7,0,13.3,0,20c0,2-0.2,2.2-2.3,2.2C4.1,165.8,2.2,165.7,0.2,165.7z M8.2,123.8
		C8.2,123.8,8.2,123.8,8.2,123.8c0,2.5,0,4.9,0,7.4c0,1.6,0.5,2,2,2c4.5,0,9,0.1,13.5,0c2.8,0,5-1.4,6.4-3.8c1.7-2.8,2-5.8,0.9-8.8
		c-1.2-3.7-4.1-5.8-8-5.8c-4.3,0-8.5,0-12.8,0c-1.7,0-2.1,0.5-2.1,2.1C8.2,119.2,8.2,121.5,8.2,123.8z"/>
	<path class="st0" d="M263.7,151.2c0.3-0.5,0.6-1.1,0.8-1.7c1.2-3.7,2.4-7.4,3.5-11.1c1.3-4.3,2.6-8.7,3.9-13.1c1.5-5,3-10,4.5-14.9
		c0.9-3.2,1.1-3.4,4.5-3.3c1.4,0,2.8,0,4.1,0c1.2,0,1.5,0.4,1.3,1.6c-0.1,0.6-0.4,1.1-0.6,1.7c-1.4,4.4-2.8,8.8-4.3,13.1
		c-1.9,5.8-3.8,11.6-5.7,17.4c-1.2,3.8-2.5,7.6-3.7,11.4c-1.3,3.9-2.6,7.8-3.9,11.8c-0.6,1.7-0.8,1.8-2.6,1.8c-1.3,0-2.5,0-3.8,0
		c-1.7,0-2.1-0.3-2.7-1.9c-1.3-3.7-2.5-7.5-3.7-11.2c-1.8-5.3-3.6-10.5-5.3-15.8c-1.2-3.8-2.3-7.6-3.5-11.3
		c-1.8-5.5-3.6-10.9-5.5-16.3c-0.1-0.2-0.1-0.3-0.2-0.5c-0.3-1.2-0.1-1.6,1.1-1.7c1.1-0.1,2.2,0,3.2-0.1c0.6,0,1.2,0,1.8,0
		c2.3,0,2.6,0.1,3.3,2.4c1.6,5.1,3.1,10.3,4.7,15.5c0.8,2.7,1.7,5.5,2.6,8.2c1.1,3.6,2.2,7.2,3.3,10.8c0.6,2,1.1,3.9,1.7,5.9
		c0.1,0.4,0.4,0.8,0.6,1.2C263.4,151.1,263.5,151.1,263.7,151.2z"/>
	<path class="st0" d="M218.6,140.5c0,7.8,0,15.6,0,23.4c0,1.5-0.3,1.9-1.9,1.9c-1.4,0-2.8,0-4.1,0c-1.8,0-2.1-0.3-2.1-2.1
		c0-6.3,0-12.6,0-18.9c0-9.3,0-18.7,0-28c0-1.3-0.3-1.7-1.7-1.8c-1.2-0.1-2.4,0-3.6,0c-3.1,0-6.2,0-9.4,0c-1.9,0-2.2-0.3-2.2-2.2
		c0-1.3,0-2.5,0-3.8c0-1.5,0.3-1.8,1.8-1.8c2,0,4.1,0,6.1,0c10.4,0,20.9,0,31.3,0c2,0,2.3,0.3,2.3,2.3c0,1.3,0,2.5,0,3.8
		c0,1.4-0.3,1.8-1.8,1.8c-3,0-6,0-9,0c-1.4,0-2.8,0-4.1,0.1c-1.3,0.1-1.7,0.5-1.7,1.8C218.6,124.7,218.6,132.6,218.6,140.5
		C218.6,140.5,218.6,140.5,218.6,140.5z"/>
	<path class="st0" d="M163.4,151c-3,0-6,0-9,0c-1.8,0-2.1,0.4-1.8,2.2c0.9,4.7,4.6,6.7,9.2,6.5c2.2-0.1,4.2-0.9,6-2.1
		c1.2-0.8,1.4-0.8,2.3,0.1c0.9,0.8,1.8,1.7,2.7,2.6c0.6,0.6,0.6,1.2-0.1,1.7c-3.5,2.5-7.2,4.5-11.7,4.5c-0.4,0-0.7,0-1.1,0
		c-4,0.6-7-1.6-9.8-4c-2.6-2.1-3.6-5-4.1-8.2c-0.6-3.9-0.6-7.9,0-11.8c0.3-1.8,0.8-3.7,1.6-5.3c1.6-3.5,4.5-5.5,8.2-6.4
		c2.8-0.8,5.6-0.8,8.5-0.1c3,0.8,5.3,2.6,7,5.1c1.4,2,2.3,4.2,2.5,6.7c0.2,2.1,0.5,4.3,0.6,6.4c0.1,1.9-0.2,2.1-2.2,2.1
		C169.3,151,166.3,151,163.4,151C163.4,151,163.4,151,163.4,151z M160.1,145.6c2,0,4,0,5.9,0c1.5-0.1,2-0.6,1.6-2
		c-0.4-1.4-0.9-2.9-1.7-4.1c-1.9-3-6.1-3.9-9.2-2.1c-2.3,1.3-3.4,3.4-4,5.9c-0.5,1.8-0.1,2.4,1.9,2.4
		C156.4,145.7,158.3,145.6,160.1,145.6z"/>
	<path class="st0" d="M75.3,148.3c-0.1,2.3,0,4.7-0.4,7c-1.2,6.9-5.7,10.2-12.2,11.1c-4.5,0.6-8.6-0.5-12-3.6
		c-1.8-1.6-3-3.5-3.5-5.7c-0.4-1.7-0.7-3.5-0.7-5.3c0-3.5-0.1-7.1,0.3-10.6c0.6-5.5,4.5-9.3,9.9-10.5c2.8-0.6,5.6-0.6,8.4,0
		c2.6,0.6,4.9,1.8,6.6,3.7c2.3,2.5,3.3,5.5,3.4,8.9c0.1,1.7,0,3.4,0,5C75.2,148.3,75.3,148.3,75.3,148.3z M68.4,148.4
		c0,0-0.1,0-0.1,0c0-1.7,0.1-3.5,0-5.2c-0.4-4-3.8-6.2-6.9-6.5c-2.9-0.3-7,1.6-7.8,5.6c-0.2,0.9-0.4,1.9-0.4,2.8
		c-0.1,2.1-0.1,4.2,0,6.3c0,1,0.2,2,0.4,3c0.8,3.7,4.3,5.7,8.1,5.3c4-0.4,6.4-3.2,6.7-7.2C68.5,151.1,68.4,149.7,68.4,148.4z"/>
	<path class="st0" d="M87.9,148.2c0,1.4-0.1,2.8,0,4.1c0.6,6.8,7.2,8.7,12,6.6c1-0.5,2-1.1,2.9-1.8c1-0.7,1.4-0.8,2.2,0
		c1,0.9,2,1.7,2.9,2.7c0.9,1,0.9,1.3-0.1,2.2c-2.6,2.5-5.8,3.8-9.3,4.3c-2.1,0.3-4.3,0.1-6.5,0.2c-0.3,0-0.6,0-0.9-0.1
		c-3.3-1.9-6.9-3.4-8.5-7.4c-0.9-2.4-1.7-4.7-1.7-7.3c0-2.3-0.1-4.7,0-7c0.2-3.3,0.9-6.4,2.8-9.2c1.1-1.5,2.5-2.6,4.1-3.4
		c3.8-1.8,7.8-2.4,12-1.5c2.7,0.6,5,1.5,7.1,3.2c0.4,0.3,0.8,0.6,1.1,0.9c0.7,0.8,0.6,1.3-0.1,2c-1,0.9-2,1.7-3,2.6
		c-0.7,0.6-1.3,0.6-2.1,0.1c-0.9-0.7-1.9-1.3-2.9-1.8c-3.4-1.7-6.5-1-9.5,1c-1.3,0.9-2,2.4-2.3,4c-0.3,1.8-0.4,3.7-0.6,5.5
		C87.7,148.2,87.8,148.2,87.9,148.2z"/>
	<path class="st0" d="M181.7,148.1c0-2.9,0-5.9,0-8.8c0-1.7-0.2-2-2.1-2.2c-1.3-0.2-1.5-0.4-1.5-1.7c0-1,0-1.9,0-2.9
		c0-1.2,0.2-1.4,1.4-1.6c2.1-0.3,2.2-0.4,2.1-2.4c0-2-0.1-4,0-5.9c0-1.5,0.5-1.9,1.9-2c1,0,2,0,3.1,0c1.6,0,1.9,0.4,1.9,2.1
		c0,2,0,4.1-0.1,6.1c0,1.7,0.3,2,1.9,2.1c0.7,0,1.4,0,2.2,0c0.8,0,1.4,0.4,1.4,1.3c0,1.2,0,2.4,0,3.6c0,0.8-0.5,1.2-1.3,1.2
		c-0.8,0-1.6,0-2.3,0c-1.4,0.1-1.9,0.6-1.9,2c0,5.4,0,10.8,0,16.2c0,0.5,0.1,1.1,0.2,1.6c0.3,1.6,1.1,2.4,2.8,2.6
		c0.4,0,0.7,0,1.1,0.1c1.1,0.1,1.5,0.5,1.5,1.6c0,1.1,0,2.3,0,3.4c0,1.2-0.4,1.7-1.6,1.7c-2.2,0.1-4.5-0.2-6.5-1
		c-2.3-0.9-3.4-3-3.7-5.3c-0.3-2.2-0.3-4.5-0.4-6.8C181.6,151.4,181.7,149.8,181.7,148.1C181.7,148.1,181.7,148.1,181.7,148.1z"/>
	<path class="st0" d="M54.7,115.1c0-1.9,0-3.8,0-5.7c0-0.4-0.1-0.9,0.1-1.2c0.3-0.4,0.7-0.8,1.1-0.9c0.6-0.1,0.9,0.5,1,1.1
		c0,0.8,0,1.7,0.1,2.5c0.1,1.1,0.4,1.3,1.5,1.1c0.3-0.1,0.6-0.2,0.9-0.2c2.4-0.4,4.2,1,4.4,3.3c0.1,2.2,0,4.4,0,6.6
		c0,0.7-0.2,1.2-1,1.3c-0.9,0.1-1.2-0.5-1.2-1.2c0-1.5,0-3,0-4.5c0-0.5,0-1.1-0.1-1.6c-0.2-1.2-1.2-1.9-2.3-1.9
		c-1.3,0.1-2.2,0.9-2.3,2.1c-0.1,1.6,0,3.1,0,4.7c0,0.5,0.1,1.1-0.1,1.6c-0.1,0.4-0.6,0.9-0.9,0.9c-0.4-0.1-0.9-0.5-1.2-0.8
		c-0.2-0.3-0.1-0.8-0.1-1.2C54.7,119,54.7,117.1,54.7,115.1C54.7,115.1,54.7,115.1,54.7,115.1z"/>
	<path class="st0" d="M72.8,118.3c-0.7,0-1.4-0.1-2.2,0c-1.2,0.1-1.5,0.9-0.8,1.9c0.7,0.9,1.6,1,2.6,0.8c0.6-0.1,1.3-0.4,1.9-0.4
		c0.3,0,0.9,0.3,1,0.6c0.1,0.3-0.1,0.9-0.3,1.1c-2.7,2.1-6.2,1.2-7.3-1.4c-1-2.3-0.9-4.7,0-7c1-2.4,4.7-3.2,6.8-1.4
		c1.4,1.1,1.9,2.7,1.8,4.5c0,0.8-0.4,1.2-1.2,1.3C74.4,118.3,73.6,118.2,72.8,118.3C72.8,118.3,72.8,118.3,72.8,118.3z M71.7,116.7
		C71.7,116.7,71.7,116.7,71.7,116.7c0.6,0,1.2,0,1.7-0.2c0.3-0.1,0.6-0.8,0.6-1.1c-0.3-1.7-2.5-2.4-3.8-1.2
		c-0.4,0.4-0.8,1.1-0.8,1.7c0,0.8,0.9,0.8,1.5,0.8C71.3,116.7,71.5,116.7,71.7,116.7z"/>
	<path class="st0" d="M47.7,117.9c0-1.6,0.2-3.2-0.8-4.7c-0.2-0.3,0-0.9,0.1-1.3c0.2-0.8,0.5-1.6,0.6-2.4c0.1-0.8,0.4-1.2,1.2-1.2
		c0.9,0,1.1,0.6,1,1.3c-0.1,1,0.1,1.8,1.1,2.4c0.7,0.4,0.6,1-0.1,1.4c-1,0.6-1.1,1.5-1.1,2.5c0,0.8,0,1.7,0,2.5c0,1.2,0,2.3,1.2,2.9
		c0.2,0.1,0.4,0.8,0.3,1.1c-0.1,0.3-0.6,0.6-1,0.6c-1.3,0.2-2.6-0.8-2.7-2.3C47.6,119.8,47.7,118.9,47.7,117.9z"/>
</g>
<g>
	<path class="st0" d="M117.6,178.4h3.8v2.2c0,1.1-0.4,2-1.1,2.8c-0.7,0.7-1.6,1.1-2.7,1.1c-0.8,0-1.5-0.2-2.1-0.6
		c-0.6-0.4-1-0.8-1.2-1.3c-0.1-0.2-0.1-0.3-0.2-0.5c-0.1-0.2-0.1-0.4-0.1-0.6c-0.1-0.4-0.1-1.3-0.1-2.5c0-1.3,0-2.1,0.1-2.6
		c0.1-0.4,0.2-0.8,0.4-1c0.3-0.5,0.7-1,1.2-1.4c0.6-0.4,1.3-0.6,2.1-0.6c1,0,1.9,0.3,2.5,0.9c0.6,0.6,1.1,1.4,1.2,2.3h-1.7
		c-0.1-0.4-0.4-0.8-0.7-1.1c-0.4-0.3-0.8-0.5-1.3-0.5c-0.4,0-0.7,0.1-1,0.2c-0.3,0.2-0.5,0.3-0.7,0.6c-0.2,0.2-0.3,0.5-0.4,0.9
		c-0.1,0.4-0.1,1.1-0.1,2.2c0,1.1,0,1.8,0.1,2.2c0.1,0.4,0.2,0.7,0.4,0.9c0.2,0.2,0.4,0.4,0.7,0.6c0.3,0.2,0.6,0.2,1,0.2
		c0.6,0,1.1-0.2,1.6-0.7c0.4-0.4,0.6-1,0.6-1.7V180h-2.2V178.4z"/>
	<path class="st0" d="M123.4,173.5h1.6v7.1c0,0.7,0.2,1.3,0.6,1.7c0.4,0.4,0.9,0.6,1.5,0.6c0.6,0,1.1-0.2,1.6-0.6
		c0.4-0.4,0.6-1,0.6-1.7v-7.1h1.6v7.3c0,1.2-0.4,2.1-1.1,2.8c-0.7,0.7-1.6,1.1-2.7,1.1c-1.1,0-2-0.4-2.7-1.1
		c-0.7-0.7-1.1-1.6-1.1-2.7V173.5z"/>
	<path class="st0" d="M138.4,182h-4l-0.8,2.5h-1.7l3.9-11h1.4l3.9,11h-1.7L138.4,182z M137.9,180.5l-1.5-4.8h0l-1.5,4.8H137.9z"/>
	<path class="st0" d="M143,174.9h-2.9v-1.5h7.4v1.5h-2.9v9.5H143V174.9z"/>
	<path class="st0" d="M148.9,173.5h6.8v1.6h-5.2v3.1h4.4v1.5h-4.4v3.2h5.2v1.6h-6.8V173.5z"/>
	<path class="st0" d="M157.5,173.5h1.5l3.1,7.2l3-7.2h1.5v11H165v-6.9h0l-2.2,5.3h-1.3l-2.2-5.3h0v6.9h-1.6V173.5z"/>
	<path class="st0" d="M174.6,182h-4l-0.8,2.5h-1.7l3.9-11h1.4l3.9,11h-1.7L174.6,182z M174.2,180.5l-1.5-4.8h0l-1.5,4.8H174.2z"/>
	<path class="st0" d="M178.6,173.5h1.6v9.4h5.2v1.6h-6.8V173.5z"/>
	<path class="st0" d="M192.6,182h-4l-0.8,2.5h-1.7l3.9-11h1.4l3.9,11h-1.7L192.6,182z M192.2,180.5l-1.5-4.8h0l-1.5,4.8H192.2z"/>
</g>
</svg>
