<?xml version="1.0" encoding="utf-8"?>
<!-- Generator: Adobe Illustrator 25.2.1, SVG Export Plug-In . SVG Version: 6.00 Build 0)  -->
<svg version="1.1" id="Capa_1" xmlns="http://www.w3.org/2000/svg" xmlns:xlink="http://www.w3.org/1999/xlink" x="0px" y="0px"
	 viewBox="0 0 34 34" style="enable-background:new 0 0 34 34;" xml:space="preserve">
<style type="text/css">
	.st0{fill:#FFFFFF;}
</style>
<g id="Group_16" transform="translate(1 1)">
	<g id="Group_6" transform="translate(10 10)">
		<g id="Group_2_Copy_6" transform="translate(0 10.5)">
			<g id="Rectangle" transform="translate(-0.126 -0.025)">
				<path class="st0" d="M-8.5,5h29.2c1.2,0,2.1,0.9,2.1,2.1v0c0,1.2-0.9,2.1-2.1,2.1H-8.5c-1.2,0-2.1-0.9-2.1-2.1v0
					C-10.6,6-9.6,5-8.5,5z"/>
			</g>
		</g>
		<g id="Group_2_Copy_7" transform="translate(0 5.25)">
			<g id="Rectangle-2" transform="translate(-0.126 -0.025)">
				<path class="st0" d="M-8.5-1.3h29.2c1.2,0,2.1,0.9,2.1,2.1v0c0,1.2-0.9,2.1-2.1,2.1H-8.5c-1.2,0-2.1-0.9-2.1-2.1v0
					C-10.6-0.4-9.6-1.3-8.5-1.3z"/>
			</g>
		</g>
		<g id="Group_2_Copy_8">
			<g id="Rectangle-3" transform="translate(-0.126 -0.025)">
				<path class="st0" d="M-8.5-7.7h29.2c1.2,0,2.1,0.9,2.1,2.1v0c0,1.2-0.9,2.1-2.1,2.1H-8.5c-1.2,0-2.1-0.9-2.1-2.1v0
					C-10.6-6.7-9.6-7.7-8.5-7.7z"/>
			</g>
		</g>
	</g>
</g>
</svg>
